<svg width="21" height="21" viewBox="0 0 21 21" fill="none" xmlns="http://www.w3.org/2000/svg">
<path d="M9.44217 0.657095C9.86857 -0.219034 11.1076 -0.21903 11.534 0.657095L14.1053 5.9403C14.1308 5.99264 14.1783 6.02557 14.2293 6.03307L19.9783 6.88073C20.9411 7.02279 21.3064 8.20766 20.6258 8.88073L16.4656 12.994C16.4258 13.0334 16.4059 13.092 16.4158 13.1512L17.3982 18.9589C17.5574 19.9027 16.5731 20.6567 15.7049 20.1942L10.5623 17.452C10.5157 17.4272 10.4605 17.4273 10.4139 17.452L5.27127 20.1942C4.40291 20.6572 3.41854 19.9029 3.57791 18.9589L4.56034 13.1512C4.57022 13.0922 4.55007 13.0334 4.51053 12.994L0.349399 8.88073C-0.330972 8.2076 0.0340895 7.0227 0.99686 6.88073L6.74686 6.03307C6.79769 6.02542 6.84543 5.9926 6.87088 5.9403L9.44217 0.657095Z" fill="#FACC12"/>
</svg>
