<svg width="36" height="36" viewBox="0 0 36 36" fill="none" xmlns="http://www.w3.org/2000/svg">
<path d="M16.7246 1.37305C17.1825 0.208942 18.8176 0.208905 19.2754 1.37305L22.834 10.4219C23.1646 11.2625 23.9409 11.8445 24.8398 11.9209L34.2402 12.7178C35.4331 12.8189 35.9405 14.3109 35.043 15.124L27.7461 21.7344C27.1084 22.3121 26.8311 23.1903 27.0205 24.0303L29.2256 33.8047C29.4995 35.019 28.1741 35.9385 27.1475 35.2754L19.2832 30.1953C18.5018 29.6906 17.4982 29.6906 16.7168 30.1953L8.85254 35.2754C7.82591 35.9385 6.50054 35.019 6.77441 33.8047L8.97949 24.0303C9.16895 23.1903 8.89159 22.3121 8.25391 21.7344L0.957031 15.124C0.0595095 14.3109 0.566902 12.8189 1.75977 12.7178L11.1592 11.9209C12.0581 11.8446 12.8344 11.2625 13.165 10.4219L16.7246 1.37305Z" fill="#FAF3E1" stroke="#FA8112"/>
</svg>
