<svg width="28" height="36" viewBox="0 0 28 36" fill="none" xmlns="http://www.w3.org/2000/svg">
<rect x="3.85596" y="3.85602" width="23.4837" height="31.6449" rx="1.5" stroke="#3ADF76"/>
<path d="M23.3516 0C24.5289 0.000210781 25.4832 0.954547 25.4834 2.13184C25.4832 2.40773 25.2593 2.63168 24.9834 2.63184C24.7075 2.63167 24.4836 2.40772 24.4834 2.13184C24.4832 1.50683 23.9766 1.00021 23.3516 1H2.13184C1.50684 1.00022 1.00022 1.50684 1 2.13184V31.5127C1.00019 32.1377 1.50682 32.6443 2.13184 32.6445C2.40771 32.6447 2.63162 32.8687 2.63184 33.1445C2.63165 33.4204 2.40774 33.6444 2.13184 33.6445C0.954533 33.6443 0.000189053 32.69 0 31.5127V2.13184C0.000222147 0.954555 0.954554 0.000221954 2.13184 0H23.3516Z" fill="#3ADF76"/>
<path d="M19.6475 18.3786C19.8428 18.1838 20.1595 18.1835 20.3546 18.3786C20.5492 18.5737 20.5492 18.8904 20.3546 19.0856L14.7325 24.7077L11.6466 21.6217C11.4514 21.4265 11.4516 21.11 11.6466 20.9147C11.8418 20.7194 12.1583 20.7194 12.3536 20.9147L14.7325 23.2936L19.6475 18.3786Z" fill="#3ADF76"/>
</svg>
